<?xml version="1.0" encoding="UTF-8"?><svg id="Layer_1" xmlns="http://www.w3.org/2000/svg" viewBox="0 0 106.66 72"><defs><style>.cls-1{fill:#262626;stroke-width:0px;}</style></defs><path class="cls-1" d="M33.95,54.38c0,3.44,0,6.88,0,10.32,0,3.45-2.33,5.81-5.77,5.82-6.92.01-13.84.01-20.77,0-3.33,0-5.7-2.36-5.7-5.68-.01-6.97-.01-13.93,0-20.9,0-3.27,2.41-5.66,5.67-5.66,6.99,0,13.97,0,20.96,0,3.19,0,5.59,2.4,5.6,5.59.02,3.5,0,7.01,0,10.51ZM30.61,54.41c0-3.42,0-6.84,0-10.25,0-1.71-.84-2.54-2.54-2.54-6.81,0-13.63,0-20.44,0-1.73,0-2.58.83-2.58,2.56,0,6.86,0,13.71,0,20.57,0,1.57.88,2.44,2.44,2.44,6.88,0,13.76,0,20.63,0,1.65,0,2.48-.86,2.49-2.52,0-3.42,0-6.84,0-10.25Z"/><path class="cls-1" d="M37.31,17.75c0-3.46,0-6.92,0-10.38,0-3.37,2.34-5.75,5.7-5.75,6.94-.01,13.89-.01,20.83,0,3.36,0,5.7,2.38,5.7,5.75,0,6.92,0,13.84,0,20.77,0,3.35-2.38,5.72-5.73,5.73-6.94,0-13.89,0-20.83,0-3.26,0-5.67-2.4-5.67-5.66,0-3.48,0-6.97,0-10.45ZM66.21,17.79c0-3.5,0-7.01,0-10.51,0-1.41-.89-2.32-2.28-2.33-6.99,0-13.97,0-20.96,0-1.43,0-2.31.92-2.31,2.36,0,6.92,0,13.84,0,20.76,0,1.55.89,2.43,2.45,2.43,6.88,0,13.76,0,20.63,0,1.6,0,2.47-.87,2.47-2.47,0-3.42,0-6.84,0-10.25Z"/><path class="cls-1" d="M37.31,54.38c0-3.48,0-6.97,0-10.45,0-3.26,2.42-5.66,5.67-5.66,6.92,0,13.84,0,20.77,0,3.44,0,5.8,2.35,5.8,5.79,0,6.94,0,13.89,0,20.83,0,3.19-2.38,5.61-5.57,5.62-7.03.02-14.06.02-21.09,0-3.21,0-5.57-2.42-5.57-5.62,0-3.5,0-7.01,0-10.51ZM53.43,67.18h0c3.4,0,6.79,0,10.19,0,1.76,0,2.59-.82,2.59-2.61,0-6.75,0-13.5,0-20.25,0-1.91-.8-2.71-2.69-2.71-6.73,0-13.46,0-20.18,0-1.89,0-2.68.78-2.69,2.65,0,6.77,0,13.54,0,20.31,0,1.79.81,2.6,2.59,2.6,3.4,0,6.79,0,10.19,0Z"/><path class="cls-1" d="M88.98,70.52c-3.44,0-6.88,0-10.32,0-3.41,0-5.76-2.35-5.76-5.76,0-6.92,0-13.84,0-20.77,0-3.35,2.38-5.71,5.74-5.71,6.94,0,13.89,0,20.83,0,3.26,0,5.66,2.4,5.67,5.67.01,6.99.01,13.97,0,20.96,0,3.19-2.38,5.59-5.59,5.61-3.53.03-7.05,0-10.58,0h0ZM76.24,54.32c0,3.46,0,6.92,0,10.38,0,1.61.86,2.48,2.46,2.48,6.86,0,13.71,0,20.57,0,1.69,0,2.53-.85,2.53-2.55,0-6.84,0-13.67,0-20.51,0-1.65-.86-2.51-2.5-2.51-6.86,0-13.71,0-20.57,0-1.64,0-2.49.87-2.49,2.51,0,3.4,0,6.79,0,10.19Z"/><path class="cls-1" d="M55.09,15.33c0,.27,0,.55,0,.82,0,2.71,0,5.41,0,8.12,0,1.17-.88,1.92-1.97,1.74-.83-.14-1.36-.81-1.36-1.77,0-2.69,0-5.37,0-8.06,0-.27,0-.55,0-.99-.28.24-.46.37-.61.53-1.02,1.01-2.03,2.04-3.05,3.05-.78.78-1.76.83-2.46.15-.71-.68-.68-1.72.11-2.52,2.12-2.13,4.24-4.26,6.38-6.38.83-.82,1.75-.84,2.56-.04,2.2,2.18,4.38,4.37,6.55,6.57.6.61.65,1.46.19,2.13-.42.63-1.29.91-2,.57-.34-.16-.63-.44-.9-.71-1.1-1.08-2.18-2.18-3.27-3.28-.06.02-.11.05-.17.07Z"/><path class="cls-1" d="M55.28,56.87c1.11-1.13,2.22-2.26,3.35-3.38.25-.25.55-.5.87-.63.71-.29,1.51,0,1.93.61.45.66.39,1.52-.21,2.13-1.34,1.36-2.7,2.71-4.05,4.06-.82.82-1.63,1.65-2.46,2.46-.85.83-1.75.82-2.6-.02-2.13-2.12-4.26-4.25-6.38-6.38-.77-.77-.81-1.79-.14-2.46.72-.72,1.68-.68,2.51.13.99.98,1.98,1.97,2.96,2.96.17.17.36.34.69.66,0-.45,0-.69,0-.94,0-2.75,0-5.5,0-8.25,0-.8.45-1.42,1.12-1.64.64-.21,1.43-.04,1.8.52.24.37.39.87.39,1.31.03,2.73.02,5.46.02,8.19,0,.21,0,.41,0,.62.06.02.12.05.19.07Z"/></svg>