<?xml version="1.0" encoding="UTF-8"?><svg id="Layer_1" xmlns="http://www.w3.org/2000/svg" viewBox="0 0 72 72"><defs><style>.cls-1{fill:#fff;stroke:#262626;stroke-miterlimit:10;stroke-width:1.8px;}</style></defs><path class="cls-1" d="M38.96,31.82c.39-.5.76-1.02,1.18-1.48,1.82-2.02,4.05-3.32,6.72-3.84,1.02-.2,2.04-.27,3.07-.24,2.11.08,4.14.5,6.01,1.52,2.1,1.14,3.62,2.83,4.64,4.98.61,1.3.99,2.67,1.2,4.09.17,1.08.24,2.17.24,3.27,0,7.21,0,14.42,0,21.64q0,.29-.29.29c-3.39,0-6.77,0-10.16,0q-.3,0-.3-.29c0-6.23.01-12.46-.02-18.68,0-1.52-.28-3-1.02-4.36-.77-1.43-1.97-2.27-3.57-2.53-1.32-.21-2.61-.12-3.86.36-1.46.56-2.46,1.62-3.08,3.03-.39.89-.62,1.83-.69,2.79-.04.55-.07,1.1-.07,1.65,0,5.88,0,11.75,0,17.63,0,.06,0,.12,0,.18,0,.23,0,.23-.24.23-2.44,0-4.89,0-7.33,0-.84,0-1.68,0-2.51,0q-.28,0-.28-.28c0-11.05,0-22.1,0-33.15,0-.37,0-.74,0-1.11,0-.15.05-.19.19-.19,3.32,0,6.64,0,9.97,0,.17,0,.2.07.2.22,0,1.39,0,2.78,0,4.17v.13Z"/><path class="cls-1" d="M21.8,44.66c0,5.64,0,11.28,0,16.93,0,.05,0,.11,0,.16q0,.28-.28.28c-3.34,0-6.68,0-10.02,0-.11,0-.22,0-.33,0-.13,0-.18-.05-.17-.18,0-.06,0-.12,0-.18,0-11.34,0-22.67,0-34.01,0-.02,0-.05,0-.07q0-.29.29-.29c3.42,0,6.83,0,10.25,0q.27,0,.27.27c0,5.7,0,11.39,0,17.09Z"/><path class="cls-1" d="M22.72,16.41c-.02,3.51-2.79,6.41-6.37,6.41-3.57,0-6.39-2.89-6.38-6.44,0-3.56,2.85-6.4,6.38-6.4,3.54,0,6.36,2.87,6.37,6.43Z"/></svg>