<?xml version="1.0" encoding="UTF-8"?><svg id="Layer_1" xmlns="http://www.w3.org/2000/svg" viewBox="0 0 72 72"><defs><style>.cls-1{stroke-width:1.8px;}.cls-1,.cls-2,.cls-3{fill:none;stroke:#262626;stroke-miterlimit:10;}.cls-2{stroke-width:1.52px;}.cls-2,.cls-3{stroke-linecap:round;}.cls-3{stroke-width:1.58px;}</style></defs><path class="cls-1" d="M55.55,62.53c-2.66-.77-5.4-1.32-7.95-2.33-18.16-7.18-30.27-19.98-35.74-38.85-.29-.99-.46-2.03-.62-3.05-.2-1.25.2-2.3,1.28-3,2.29-1.48,4.61-2.94,6.92-4.39,1.01-.63,2.05-.53,3.08-.02,5.15,2.57,8.07,6.86,9.49,12.3.26,1-.08,1.89-.74,2.68-1.16,1.39-2.31,2.79-3.45,4.19-1.32,1.62-1.38,2.61-.24,4.39,3.05,4.78,6.99,8.68,11.8,11.7,1.46.92,2.55.85,3.92-.24,1.47-1.18,2.93-2.39,4.38-3.59.93-.77,1.91-.99,3.11-.66,5.11,1.42,9.08,4.24,11.64,8.97.71,1.31.82,2.52,0,3.8-1.4,2.17-2.76,4.35-4.16,6.52-.61.95-1.51,1.4-2.7,1.59Z"/><path class="cls-2" d="M20.78,14.26s1,4.99,7.71,9.97"/><path class="cls-3" d="M49.56,44.55s1.94,6.59,10,8.46"/></svg>